{
  "asset": {
    "generator": "glTF-Transform v4.4.0",
    "version": "2.0"
  },
  "accessors": [
    {
      "type": "VEC3",
      "componentType": 5126,
      "count": 64,
      "max": [
        0.4300000071525574,
        0.6002463102340698,
        -0.019999999552965164
      ],
      "min": [
        0,
        0,
        -0.28193390369415283
      ],
      "bufferView": 0,
      "byteOffset": 0
    },
    {
      "type": "VEC3",
      "componentType": 5126,
      "count": 64,
      "bufferView": 0,
      "byteOffset": 12
    },
    {
      "type": "VEC2",
      "componentType": 5126,
      "count": 64,
      "bufferView": 0,
      "byteOffset": 24
    },
    {
      "type": "SCALAR",
      "componentType": 5125,
      "count": 126,
      "bufferView": 1,
      "byteOffset": 0
    },
    {
      "type": "SCALAR",
      "componentType": 5125,
      "count": 6,
      "bufferView": 1,
      "byteOffset": 504
    },
    {
      "type": "SCALAR",
      "componentType": 5125,
      "count": 174,
      "bufferView": 1,
      "byteOffset": 528
    },
    {
      "type": "SCALAR",
      "componentType": 5125,
      "count": 120,
      "bufferView": 1,
      "byteOffset": 1224
    },
    {
      "type": "SCALAR",
      "componentType": 5125,
      "count": 30,
      "bufferView": 1,
      "byteOffset": 1704
    },
    {
      "type": "VEC3",
      "componentType": 5126,
      "count": 168,
      "max": [
        0.37631163001060486,
        0.4865778982639313,
        0.03500000014901161
      ],
      "min": [
        0,
        0,
        -0.06499999761581421
      ],
      "bufferView": 2,
      "byteOffset": 0
    },
    {
      "type": "VEC3",
      "componentType": 5126,
      "count": 168,
      "bufferView": 2,
      "byteOffset": 12
    },
    {
      "type": "VEC2",
      "componentType": 5126,
      "count": 168,
      "bufferView": 2,
      "byteOffset": 24
    }
  ],
  "bufferViews": [
    {
      "buffer": 0,
      "byteOffset": 0,
      "byteLength": 2048,
      "byteStride": 32,
      "target": 34962
    },
    {
      "buffer": 0,
      "byteOffset": 2048,
      "byteLength": 1824,
      "target": 34963
    },
    {
      "buffer": 0,
      "byteOffset": 3872,
      "byteLength": 5376,
      "byteStride": 32,
      "target": 34962
    }
  ],
  "buffers": [
    {
      "uri": "kitchenFridgeSmall.bin",
      "byteLength": 9248
    }
  ],
  "materials": [
    {
      "name": "metalLight",
      "pbrMetallicRoughness": {
        "baseColorFactor": [
          0.9372549,
          0.980392158,
          0.956862748,
          1
        ],
        "metallicFactor": 0
      }
    },
    {
      "name": "metalDark",
      "pbrMetallicRoughness": {
        "baseColorFactor": [
          0.305882365,
          0.3882353,
          0.3882353,
          1
        ],
        "metallicFactor": 0
      }
    },
    {
      "name": "glass",
      "alphaMode": "BLEND",
      "pbrMetallicRoughness": {
        "baseColorFactor": [
          0.698039234,
          0.827451,
          0.768627465,
          0.5
        ],
        "metallicFactor": 0
      }
    },
    {
      "name": "metal",
      "pbrMetallicRoughness": {
        "baseColorFactor": [
          0.74061054,
          0.822866738,
          0.8396226,
          1
        ],
        "metallicFactor": 0
      }
    }
  ],
  "meshes": [
    {
      "name": "Mesh kitchenFridgeSmall",
      "primitives": [
        {
          "attributes": {
            "POSITION": 0,
            "NORMAL": 1,
            "TEXCOORD_0": 2
          },
          "mode": 4,
          "material": 0,
          "indices": 3
        },
        {
          "attributes": {
            "POSITION": 0,
            "NORMAL": 1,
            "TEXCOORD_0": 2
          },
          "mode": 4,
          "material": 1,
          "indices": 4
        }
      ]
    },
    {
      "name": "Mesh doorFridge",
      "primitives": [
        {
          "attributes": {
            "POSITION": 8,
            "NORMAL": 9,
            "TEXCOORD_0": 10
          },
          "mode": 4,
          "material": 0,
          "indices": 5
        },
        {
          "attributes": {
            "POSITION": 8,
            "NORMAL": 9,
            "TEXCOORD_0": 10
          },
          "mode": 4,
          "material": 2,
          "indices": 6
        },
        {
          "attributes": {
            "POSITION": 8,
            "NORMAL": 9,
            "TEXCOORD_0": 10
          },
          "mode": 4,
          "material": 3,
          "indices": 7
        }
      ]
    }
  ],
  "nodes": [
    {
      "name": "kitchenFridgeSmall(Clone)",
      "mesh": 0,
      "children": [
        1
      ]
    },
    {
      "name": "doorFridge",
      "translation": [
        0.026844183,
        0.08682419,
        -0.025
      ],
      "mesh": 1
    }
  ],
  "scenes": [
    {
      "nodes": [
        0
      ]
    }
  ],
  "scene": 0
}
