{
  "asset": {
    "generator": "glTF-Transform v4.4.0",
    "version": "2.0"
  },
  "accessors": [
    {
      "type": "VEC3",
      "componentType": 5126,
      "count": 32,
      "max": [
        1.5699999332427979,
        0.009999999776482582,
        0
      ],
      "min": [
        0,
        0,
        -0.9200000166893005
      ],
      "bufferView": 0,
      "byteOffset": 0
    },
    {
      "type": "VEC3",
      "componentType": 5126,
      "count": 32,
      "bufferView": 0,
      "byteOffset": 12
    },
    {
      "type": "VEC2",
      "componentType": 5126,
      "count": 32,
      "bufferView": 0,
      "byteOffset": 24
    },
    {
      "type": "SCALAR",
      "componentType": 5125,
      "count": 60,
      "bufferView": 1,
      "byteOffset": 0
    },
    {
      "type": "SCALAR",
      "componentType": 5125,
      "count": 24,
      "bufferView": 1,
      "byteOffset": 240
    }
  ],
  "bufferViews": [
    {
      "buffer": 0,
      "byteOffset": 0,
      "byteLength": 1024,
      "byteStride": 32,
      "target": 34962
    },
    {
      "buffer": 0,
      "byteOffset": 1024,
      "byteLength": 336,
      "target": 34963
    }
  ],
  "buffers": [
    {
      "uri": "rugRectangle.bin",
      "byteLength": 1360
    }
  ],
  "materials": [
    {
      "name": "carpet",
      "pbrMetallicRoughness": {
        "baseColorFactor": [
          0.9433962,
          0.367175967,
          0.3426486,
          1
        ],
        "metallicFactor": 0
      }
    },
    {
      "name": "carpetDarker",
      "pbrMetallicRoughness": {
        "baseColorFactor": [
          0.608,
          0.29781273,
          0.285152018,
          1
        ],
        "metallicFactor": 0
      }
    }
  ],
  "meshes": [
    {
      "name": "Mesh rugRectangle",
      "primitives": [
        {
          "attributes": {
            "POSITION": 0,
            "NORMAL": 1,
            "TEXCOORD_0": 2
          },
          "mode": 4,
          "material": 0,
          "indices": 3
        },
        {
          "attributes": {
            "POSITION": 0,
            "NORMAL": 1,
            "TEXCOORD_0": 2
          },
          "mode": 4,
          "material": 1,
          "indices": 4
        }
      ]
    }
  ],
  "nodes": [
    {
      "name": "rugRectangle(Clone)",
      "mesh": 0
    }
  ],
  "scenes": [
    {
      "nodes": [
        0
      ]
    }
  ],
  "scene": 0
}
