{
  "asset": {
    "generator": "glTF-Transform v4.4.0",
    "version": "2.0"
  },
  "accessors": [
    {
      "type": "VEC3",
      "componentType": 5126,
      "count": 114,
      "max": [
        0.3424000144004822,
        0.4547500014305115,
        0.06419999897480011
      ],
      "min": [
        -0.3424000144004822,
        0,
        -0.06419999897480011
      ],
      "bufferView": 0,
      "byteOffset": 0
    },
    {
      "type": "VEC3",
      "componentType": 5126,
      "count": 114,
      "bufferView": 0,
      "byteOffset": 12
    },
    {
      "type": "VEC2",
      "componentType": 5126,
      "count": 114,
      "bufferView": 0,
      "byteOffset": 24
    },
    {
      "type": "SCALAR",
      "componentType": 5125,
      "count": 210,
      "bufferView": 1,
      "byteOffset": 0
    },
    {
      "type": "SCALAR",
      "componentType": 5125,
      "count": 6,
      "bufferView": 1,
      "byteOffset": 840
    }
  ],
  "bufferViews": [
    {
      "buffer": 0,
      "byteOffset": 0,
      "byteLength": 3648,
      "byteStride": 32,
      "target": 34962
    },
    {
      "buffer": 0,
      "byteOffset": 3648,
      "byteLength": 864,
      "target": 34963
    }
  ],
  "buffers": [
    {
      "uri": "televisionModern.bin",
      "byteLength": 4512
    }
  ],
  "materials": [
    {
      "name": "metalDark",
      "pbrMetallicRoughness": {
        "baseColorFactor": [
          0.305882365,
          0.3882353,
          0.3882353,
          1
        ],
        "metallicFactor": 0
      }
    },
    {
      "name": "metal",
      "pbrMetallicRoughness": {
        "baseColorFactor": [
          0.74061054,
          0.822866738,
          0.8396226,
          1
        ],
        "metallicFactor": 0
      }
    }
  ],
  "meshes": [
    {
      "name": "Mesh televisionModern",
      "primitives": [
        {
          "attributes": {
            "POSITION": 0,
            "NORMAL": 1,
            "TEXCOORD_0": 2
          },
          "mode": 4,
          "material": 0,
          "indices": 3
        },
        {
          "attributes": {
            "POSITION": 0,
            "NORMAL": 1,
            "TEXCOORD_0": 2
          },
          "mode": 4,
          "material": 1,
          "indices": 4
        }
      ]
    }
  ],
  "nodes": [
    {
      "name": "televisionModern(Clone)",
      "mesh": 0
    }
  ],
  "scenes": [
    {
      "nodes": [
        0
      ]
    }
  ],
  "scene": 0
}
