{
  "asset": {
    "generator": "glTF-Transform v4.4.0",
    "version": "2.0"
  },
  "accessors": [
    {
      "type": "VEC3",
      "componentType": 5126,
      "count": 184,
      "max": [
        1.1200000047683716,
        0.4000000059604645,
        0
      ],
      "min": [
        0,
        0,
        -0.4100000262260437
      ],
      "bufferView": 0,
      "byteOffset": 0
    },
    {
      "type": "VEC3",
      "componentType": 5126,
      "count": 184,
      "bufferView": 0,
      "byteOffset": 12
    },
    {
      "type": "VEC2",
      "componentType": 5126,
      "count": 184,
      "bufferView": 0,
      "byteOffset": 24
    },
    {
      "type": "SCALAR",
      "componentType": 5125,
      "count": 228,
      "bufferView": 1,
      "byteOffset": 0
    },
    {
      "type": "SCALAR",
      "componentType": 5125,
      "count": 120,
      "bufferView": 1,
      "byteOffset": 912
    }
  ],
  "bufferViews": [
    {
      "buffer": 0,
      "byteOffset": 0,
      "byteLength": 5888,
      "byteStride": 32,
      "target": 34962
    },
    {
      "buffer": 0,
      "byteOffset": 5888,
      "byteLength": 1392,
      "target": 34963
    }
  ],
  "buffers": [
    {
      "uri": "loungeDesignSofa.bin",
      "byteLength": 7280
    }
  ],
  "materials": [
    {
      "name": "carpetBlue",
      "pbrMetallicRoughness": {
        "baseColorFactor": [
          0.356176585,
          0.51664,
          0.8679245,
          1
        ],
        "metallicFactor": 0.5
      }
    },
    {
      "name": "metal",
      "pbrMetallicRoughness": {
        "baseColorFactor": [
          0.74061054,
          0.822866738,
          0.8396226,
          1
        ],
        "metallicFactor": 0
      }
    }
  ],
  "meshes": [
    {
      "name": "Mesh loungeDesignSofa",
      "primitives": [
        {
          "attributes": {
            "POSITION": 0,
            "NORMAL": 1,
            "TEXCOORD_0": 2
          },
          "mode": 4,
          "material": 0,
          "indices": 3
        },
        {
          "attributes": {
            "POSITION": 0,
            "NORMAL": 1,
            "TEXCOORD_0": 2
          },
          "mode": 4,
          "material": 1,
          "indices": 4
        }
      ]
    }
  ],
  "nodes": [
    {
      "name": "loungeDesignSofa(Clone)",
      "mesh": 0
    }
  ],
  "scenes": [
    {
      "nodes": [
        0
      ]
    }
  ],
  "scene": 0
}
