{
  "asset": {
    "generator": "glTF-Transform v4.4.0",
    "version": "2.0"
  },
  "accessors": [
    {
      "type": "VEC3",
      "componentType": 5126,
      "count": 325,
      "max": [
        0.2828291356563568,
        0,
        0.26134738326072693
      ],
      "min": [
        -0.17190662026405334,
        -0.13371799886226654,
        -0.26373621821403503
      ],
      "bufferView": 0,
      "byteOffset": 0
    },
    {
      "type": "VEC3",
      "componentType": 5126,
      "count": 325,
      "bufferView": 0,
      "byteOffset": 12
    },
    {
      "type": "VEC2",
      "componentType": 5126,
      "count": 325,
      "bufferView": 0,
      "byteOffset": 24
    },
    {
      "type": "SCALAR",
      "componentType": 5125,
      "count": 384,
      "bufferView": 1,
      "byteOffset": 0
    },
    {
      "type": "SCALAR",
      "componentType": 5125,
      "count": 78,
      "bufferView": 1,
      "byteOffset": 1536
    },
    {
      "type": "SCALAR",
      "componentType": 5125,
      "count": 180,
      "bufferView": 1,
      "byteOffset": 1848
    }
  ],
  "bufferViews": [
    {
      "buffer": 0,
      "byteOffset": 0,
      "byteLength": 10400,
      "byteStride": 32,
      "target": 34962
    },
    {
      "buffer": 0,
      "byteOffset": 10400,
      "byteLength": 2568,
      "target": 34963
    }
  ],
  "buffers": [
    {
      "uri": "ceilingFan.bin",
      "byteLength": 12968
    }
  ],
  "materials": [
    {
      "name": "metalLight",
      "pbrMetallicRoughness": {
        "baseColorFactor": [
          0.9372549,
          0.980392158,
          0.956862748,
          1
        ],
        "metallicFactor": 0
      }
    },
    {
      "name": "lamp",
      "pbrMetallicRoughness": {
        "baseColorFactor": [
          1,
          0.9137255,
          0.5882353,
          1
        ],
        "metallicFactor": 0
      }
    },
    {
      "name": "wood",
      "pbrMetallicRoughness": {
        "baseColorFactor": [
          0.8962264,
          0.6015712,
          0.3931559,
          1
        ],
        "metallicFactor": 0
      }
    }
  ],
  "meshes": [
    {
      "name": "Mesh ceilingFan",
      "primitives": [
        {
          "attributes": {
            "POSITION": 0,
            "NORMAL": 1,
            "TEXCOORD_0": 2
          },
          "mode": 4,
          "material": 0,
          "indices": 3
        },
        {
          "attributes": {
            "POSITION": 0,
            "NORMAL": 1,
            "TEXCOORD_0": 2
          },
          "mode": 4,
          "material": 1,
          "indices": 4
        },
        {
          "attributes": {
            "POSITION": 0,
            "NORMAL": 1,
            "TEXCOORD_0": 2
          },
          "mode": 4,
          "material": 2,
          "indices": 5
        }
      ]
    }
  ],
  "nodes": [
    {
      "name": "ceilingFan(Clone)",
      "mesh": 0
    }
  ],
  "scenes": [
    {
      "nodes": [
        0
      ]
    }
  ],
  "scene": 0
}
