{
  "asset": {
    "generator": "glTF-Transform v4.4.0",
    "version": "2.0"
  },
  "accessors": [
    {
      "type": "VEC3",
      "componentType": 5126,
      "count": 116,
      "max": [
        1,
        1.2895317077636719,
        0.01954999938607216
      ],
      "min": [
        0,
        0,
        -0.06955000013113022
      ],
      "bufferView": 0,
      "byteOffset": 0
    },
    {
      "type": "VEC3",
      "componentType": 5126,
      "count": 116,
      "bufferView": 0,
      "byteOffset": 12
    },
    {
      "type": "VEC2",
      "componentType": 5126,
      "count": 116,
      "bufferView": 0,
      "byteOffset": 24
    },
    {
      "type": "SCALAR",
      "componentType": 5125,
      "count": 132,
      "bufferView": 1,
      "byteOffset": 0
    },
    {
      "type": "SCALAR",
      "componentType": 5125,
      "count": 24,
      "bufferView": 1,
      "byteOffset": 528
    },
    {
      "type": "SCALAR",
      "componentType": 5125,
      "count": 36,
      "bufferView": 1,
      "byteOffset": 624
    },
    {
      "type": "SCALAR",
      "componentType": 5125,
      "count": 12,
      "bufferView": 1,
      "byteOffset": 768
    },
    {
      "type": "SCALAR",
      "componentType": 5125,
      "count": 120,
      "bufferView": 1,
      "byteOffset": 816
    },
    {
      "type": "VEC3",
      "componentType": 5126,
      "count": 64,
      "max": [
        0.3745831847190857,
        0.6641149520874023,
        -0.009999999776482582
      ],
      "min": [
        0,
        0,
        -0.03454999998211861
      ],
      "bufferView": 2,
      "byteOffset": 0
    },
    {
      "type": "VEC3",
      "componentType": 5126,
      "count": 64,
      "bufferView": 2,
      "byteOffset": 12
    },
    {
      "type": "VEC2",
      "componentType": 5126,
      "count": 64,
      "bufferView": 2,
      "byteOffset": 24
    }
  ],
  "bufferViews": [
    {
      "buffer": 0,
      "byteOffset": 0,
      "byteLength": 3712,
      "byteStride": 32,
      "target": 34962
    },
    {
      "buffer": 0,
      "byteOffset": 3712,
      "byteLength": 1296,
      "target": 34963
    },
    {
      "buffer": 0,
      "byteOffset": 5008,
      "byteLength": 2048,
      "byteStride": 32,
      "target": 34962
    }
  ],
  "buffers": [
    {
      "uri": "wallWindow.bin",
      "byteLength": 7056
    }
  ],
  "materials": [
    {
      "name": "wood",
      "pbrMetallicRoughness": {
        "baseColorFactor": [
          0.8962264,
          0.6015712,
          0.3931559,
          1
        ],
        "metallicFactor": 0
      }
    },
    {
      "name": "metalDark",
      "pbrMetallicRoughness": {
        "baseColorFactor": [
          0.305882365,
          0.3882353,
          0.3882353,
          1
        ],
        "metallicFactor": 0
      }
    },
    {
      "name": "_defaultMat",
      "pbrMetallicRoughness": {
        "metallicFactor": 0
      }
    },
    {
      "name": "glass",
      "alphaMode": "BLEND",
      "pbrMetallicRoughness": {
        "baseColorFactor": [
          0.698039234,
          0.827451,
          0.768627465,
          0.5
        ],
        "metallicFactor": 0
      }
    }
  ],
  "meshes": [
    {
      "name": "Mesh wallWindow",
      "primitives": [
        {
          "attributes": {
            "POSITION": 0,
            "NORMAL": 1,
            "TEXCOORD_0": 2
          },
          "mode": 4,
          "material": 0,
          "indices": 3
        },
        {
          "attributes": {
            "POSITION": 0,
            "NORMAL": 1,
            "TEXCOORD_0": 2
          },
          "mode": 4,
          "material": 1,
          "indices": 4
        },
        {
          "attributes": {
            "POSITION": 0,
            "NORMAL": 1,
            "TEXCOORD_0": 2
          },
          "mode": 4,
          "material": 2,
          "indices": 5
        }
      ]
    },
    {
      "name": "Mesh window",
      "primitives": [
        {
          "attributes": {
            "POSITION": 8,
            "NORMAL": 9,
            "TEXCOORD_0": 10
          },
          "mode": 4,
          "material": 3,
          "indices": 6
        },
        {
          "attributes": {
            "POSITION": 8,
            "NORMAL": 9,
            "TEXCOORD_0": 10
          },
          "mode": 4,
          "material": 0,
          "indices": 7
        }
      ]
    }
  ],
  "nodes": [
    {
      "name": "wallWindow(Clone)",
      "mesh": 0,
      "children": [
        1
      ]
    },
    {
      "name": "window",
      "translation": [
        0.3127084,
        0.3927084,
        -0.002725
      ],
      "mesh": 1
    }
  ],
  "scenes": [
    {
      "nodes": [
        0
      ]
    }
  ],
  "scene": 0
}
